<svg width="56" height="56" viewBox="0 0 56 56" fill="none" xmlns="http://www.w3.org/2000/svg">
<g clip-path="url(#clip0_1853_222)">
<path d="M44.1383 27.2737C44.2391 27.2345 44.276 27.2244 44.3085 27.2087C47.2104 25.7785 50.2557 24.7324 53.3436 23.7961C53.7759 23.665 54.2049 23.525 54.6394 23.4041C54.7317 23.3977 54.8244 23.4087 54.9127 23.4365C54.8533 23.5026 54.8007 23.5956 54.7313 23.6314C53.4041 24.2765 52.0769 24.9205 50.7441 25.5533C48.2319 26.7473 45.7735 28.0431 43.3812 29.4633C43.1785 29.5775 43.0179 29.7538 42.9231 29.9661C40.5218 35.1181 37.9368 40.1749 35.0394 45.0671C33.7032 47.325 32.2842 49.5281 30.5594 51.5228C29.4125 52.8646 28.1805 54.0966 26.6562 55.0228C25.9304 55.4618 25.171 55.8214 24.3221 55.9546C23.645 56.0742 22.9475 55.9855 22.3219 55.7001C21.6964 55.4147 21.1722 54.9462 20.8187 54.3564C20.1904 53.3484 20.0045 52.2284 20.1053 51.058C20.196 49.9951 20.523 48.9938 20.9262 48.015C21.8413 45.794 23.1449 43.8082 24.6222 41.9266C27.1635 38.6853 30.2054 35.9794 33.5666 33.6196C35.9869 31.9205 38.5181 30.3996 41.0795 28.9279C41.2578 28.8311 41.398 28.6768 41.4771 28.49C42.5445 26.0775 43.6164 23.6684 44.4765 21.1719C44.882 19.9948 45.2202 18.7975 45.33 17.5509C45.3537 17.2434 45.3477 16.9344 45.312 16.6281C45.2605 16.133 44.9704 15.8273 44.4888 15.6951C43.9087 15.5349 43.324 15.554 42.7394 15.6357C40.9474 15.8855 39.2181 16.3772 37.5079 16.9484C36.5155 17.2844 35.5333 17.6428 34.5466 17.9922C34.4704 18.0191 34.3965 18.0516 34.308 18.0874C34.3255 18.1262 34.3457 18.1636 34.3685 18.1994C35.4751 19.7349 35.9074 21.4553 35.7192 23.3268C35.5075 25.4402 34.8994 27.4282 33.7323 29.2236C33.2533 29.9937 32.6313 30.6651 31.9 31.2015C31.2773 31.6439 30.6008 31.9329 29.819 31.9037C28.9746 31.8724 28.3104 31.477 27.7549 30.87C27.2971 30.3565 26.9366 29.7641 26.6909 29.1217C26.4478 28.5135 26.2429 27.8897 26.0189 27.277C25.9886 27.1941 25.9562 27.1113 25.9069 26.9881C25.8072 27.1202 25.7265 27.2121 25.6571 27.3241C24.9134 28.4228 24.3579 29.6178 23.883 30.8498C23.4888 31.8757 23.1304 32.9162 22.7518 33.9489C22.6398 34.2669 22.5121 34.5839 22.3766 34.8941C22.3081 35.0542 22.2193 35.2048 22.1123 35.3421C21.996 35.4973 21.8346 35.6128 21.6502 35.6728C21.4657 35.7329 21.2673 35.7345 21.0819 35.6775C20.8965 35.6206 20.7332 35.5078 20.6144 35.3545C20.4955 35.2013 20.4268 35.0151 20.4177 34.8213C20.4025 34.5732 20.4259 34.3242 20.4872 34.0833C20.952 32.4033 21.3977 30.7233 21.9185 29.0645C22.6387 26.7641 23.4182 24.4815 24.1731 22.1922L24.2593 21.9212C24.1641 21.9425 24.1014 21.9514 24.0409 21.9693C23.3051 22.1933 22.567 22.4017 21.8345 22.6357C21.7139 22.6844 21.6156 22.7762 21.559 22.8933C20.4569 25.2229 19.3616 27.5548 18.2729 29.8889C17.1608 32.2801 16.0732 34.6836 14.7819 36.9852C13.9475 38.4737 13.0268 39.9062 11.8553 41.1583C11.0412 42.0522 10.0624 42.7808 8.97243 43.3042C6.78058 44.329 4.45658 43.8004 2.93561 41.9143C1.97017 40.7159 1.43033 39.3294 1.21753 37.8162C0.812087 34.9401 1.37993 32.2689 2.97145 29.8306C3.49533 28.9984 4.18596 28.2838 4.99978 27.7317C5.54269 27.3585 6.17505 27.1362 6.8321 27.0877C8.0921 27.0093 9.03851 27.5257 9.65227 28.6277C10.0768 29.386 10.2123 30.2293 10.3142 31.0772C10.4172 31.8802 10.2896 32.6698 10.1966 33.4617C10.1563 33.8055 10.0924 34.146 10.0196 34.4831C10.0028 34.5637 9.90763 34.6276 9.84939 34.6981C9.81019 34.6197 9.73739 34.5402 9.73739 34.4629C9.76315 33.3429 9.68251 32.2487 9.28043 31.1948C9.0001 30.4181 8.51056 29.734 7.86586 29.218C7.58138 28.994 7.2465 28.9593 6.8993 29.0119C6.44308 29.0889 6.01685 29.29 5.6673 29.5932C5.04604 30.1092 4.52905 30.7391 4.1441 31.449C2.85497 33.773 2.40809 36.2325 2.99385 38.841C3.17144 39.6934 3.52842 40.4982 4.04106 41.202C4.8553 42.2929 5.9249 42.9055 7.32378 42.77C8.25563 42.6815 9.03963 42.2279 9.75083 41.65C10.5391 40.9823 11.2192 40.1964 11.7668 39.3204C12.9596 37.4914 13.8948 35.5258 14.839 33.5625C16.4959 30.1121 18.1621 26.667 19.8376 23.2271C19.86 23.1801 19.879 23.133 19.9182 23.0434C19.7592 23.0602 19.6315 23.0714 19.5027 23.0871C18.1285 23.2573 16.7542 23.3357 15.39 23.0188C15.044 22.9397 14.7064 22.8272 14.382 22.6828C12.636 21.9055 11.8452 20.2412 12.3257 18.3865C12.618 17.2597 13.2676 16.3615 14.1177 15.5865C15.1448 14.6569 16.3734 14.0969 17.6681 13.6612C20.0888 12.8493 22.6802 12.6867 25.1833 13.1897C25.423 13.2356 25.5406 13.1807 25.6638 12.9724C27.9307 9.17781 30.1998 5.38437 32.4712 1.59204C32.6713 1.25604 32.8811 0.925271 33.1006 0.599724C33.1905 0.459831 33.2999 0.333489 33.4254 0.224524C33.5567 0.108575 33.719 0.0336273 33.8924 0.00894487C34.0658 -0.0157376 34.2426 0.0109274 34.401 0.0856436C34.5649 0.14869 34.7053 0.261115 34.8026 0.407379C34.8999 0.553644 34.9494 0.726524 34.9442 0.902124C34.9405 1.19496 34.8843 1.48477 34.7784 1.7578C34.4424 2.57989 34.0975 3.40085 33.711 4.20053C32.143 7.44853 30.6266 10.7257 29.2646 14.07C29.1459 14.3612 29.1448 14.3601 29.4315 14.49C30.8752 15.1485 32.2102 15.9717 33.3515 17.0794C33.4725 17.1914 33.5688 17.1612 33.6942 17.1153C35.5983 16.4108 37.5023 15.6884 39.4231 15.0175C40.617 14.5997 41.8434 14.266 43.1112 14.1529C43.5984 14.1065 44.0893 14.1174 44.574 14.1853C46.03 14.4026 46.88 15.3636 46.9808 16.8599C47.0604 18.046 46.8688 19.2041 46.5855 20.3498C46.0412 22.5663 45.1978 24.6809 44.3365 26.7876C44.2839 26.9309 44.2212 27.0743 44.1383 27.2737ZM40.1466 31.4591C40.0514 31.5073 40.0032 31.5274 39.9607 31.5543C36.9815 33.4325 34.0829 35.4217 31.4162 37.7311C28.5602 40.2086 25.9987 42.9604 23.9849 46.186C23.1125 47.5838 22.3654 49.0431 21.9219 50.6402C21.7218 51.3219 21.6638 52.0375 21.7517 52.7425C21.9913 54.4863 23.2513 55.3263 24.9459 54.8638C25.8419 54.6207 26.6259 54.1548 27.3595 53.6138C28.7035 52.6327 29.7653 51.3862 30.7475 50.0646C32.3032 47.9702 33.5475 45.6898 34.7157 43.367C36.6455 39.5298 38.3389 35.5841 40.0783 31.6596C40.0962 31.6125 40.1119 31.5633 40.1466 31.4591ZM25.0422 25.6732L25.2584 25.5186C25.8822 25.0594 26.5542 25.1412 27.028 25.7538C27.1905 25.9707 27.3323 26.2025 27.4514 26.446C27.7605 27.0564 28.0371 27.6858 28.3619 28.2884C28.5666 28.6824 28.8101 29.055 29.0888 29.4005C29.5838 29.9975 30.0352 30.0479 30.6982 29.6481C31.1846 29.3434 31.615 28.9573 31.9706 28.5068C33.2108 26.9847 34.0072 25.1501 34.2722 23.2047C34.5119 21.5729 34.0784 20.1191 33.0637 18.8255C32.9315 18.6575 32.8229 18.6396 32.6291 18.7135C30.677 19.4908 28.7203 20.2546 26.7693 21.033C26.6533 21.0913 26.5637 21.1914 26.5184 21.313C26.0413 22.6783 25.5765 24.0481 25.1094 25.4167C25.0881 25.4817 25.0747 25.5466 25.0422 25.6732ZM24.7006 14.5717C24.6166 14.5505 24.5673 14.5348 24.5169 14.5258C22.2762 14.1461 19.9752 14.3533 17.8384 15.1273C16.9054 15.4633 16.0072 15.8676 15.2489 16.5261C14.5209 17.1589 13.9643 17.9049 13.775 18.8781C13.5723 19.9175 13.9699 20.7586 14.9208 21.2111C15.3222 21.3993 15.746 21.5355 16.1819 21.6165C17.6211 21.8853 19.0614 21.7845 20.4984 21.5605C20.5791 21.5512 20.6562 21.5214 20.7222 21.4739C20.7883 21.4265 20.8411 21.363 20.8758 21.2895C22.1056 19.1242 23.3395 16.9588 24.5774 14.7935C24.6144 14.7285 24.6491 14.6636 24.7006 14.5717ZM26.7502 15.0197C26.5173 14.9559 26.3123 14.9077 26.1163 14.8439C25.9382 14.7823 25.8486 14.8439 25.7613 15.0007C24.6973 16.9652 23.6295 18.9282 22.5581 20.8897C22.5233 20.9524 22.4965 21.0196 22.4461 21.1193C22.5267 21.1036 22.5693 21.0991 22.6096 21.0868C23.267 20.8964 23.9267 20.7127 24.5785 20.5066C24.6338 20.4822 24.6836 20.4471 24.7251 20.4032C24.7667 20.3594 24.7991 20.3077 24.8205 20.2513C25.3211 18.8961 25.8094 17.5364 26.3034 16.1789C26.4445 15.8082 26.5912 15.4375 26.7502 15.0231V15.0197ZM28.6005 15.6805C28.092 17.0245 27.5925 18.3204 27.1053 19.6207L27.1758 19.6801L32.0243 17.7817C30.9973 16.9102 29.8426 16.2015 28.6005 15.6805ZM28.736 10.1287C28.7259 10.1287 28.7058 10.1164 28.7046 10.1186C28.0158 11.2386 27.3282 12.3519 26.6214 13.501C26.8264 13.5615 26.9776 13.5985 27.1243 13.6489C27.2486 13.6914 27.3002 13.6388 27.3483 13.5369C27.8075 12.3982 28.2701 11.2618 28.736 10.1276V10.1287Z" fill="#C2A6CD"/>
</g>
<defs>
<clipPath id="clip0_1853_222">
<rect width="56" height="56" fill="white"/>
</clipPath>
</defs>
</svg>
