<svg width="14" height="14" viewBox="0 0 14 14" fill="none" xmlns="http://www.w3.org/2000/svg">
<path d="M0.646447 12.6464C0.451184 12.8417 0.451184 13.1583 0.646447 13.3536C0.841709 13.5488 1.15829 13.5488 1.35355 13.3536L0.646447 12.6464ZM13.5 0.999999C13.5 0.723858 13.2761 0.5 13 0.499999L8.5 0.5C8.22386 0.499999 8 0.723857 8 0.999999C8 1.27614 8.22386 1.5 8.5 1.5L12.5 1.5L12.5 5.5C12.5 5.77614 12.7239 6 13 6C13.2761 6 13.5 5.77614 13.5 5.5L13.5 0.999999ZM1.35355 13.3536L13.3536 1.35355L12.6464 0.646446L0.646447 12.6464L1.35355 13.3536Z" fill="white"/>
</svg>
