<svg width="125" height="125" viewBox="0 0 125 125" fill="none" xmlns="http://www.w3.org/2000/svg">
<rect x="0.863281" y="0.877441" width="124" height="124" rx="62" fill="#C2A6CD"/>
<path d="M28.1725 68.27C30.9265 68.27 33.2845 66.83 33.4825 63.518H31.8445C31.7005 65.696 30.1345 66.83 28.1905 66.83C25.6525 66.83 24.1585 64.904 24.1585 61.952V61.322C24.1585 58.388 25.6525 56.462 28.1905 56.462C30.1345 56.462 31.5565 57.596 31.7725 59.756H33.3925C33.1765 56.462 30.8905 55.004 28.1725 55.004C24.4105 55.004 22.4845 57.74 22.4845 61.322V61.952C22.4845 65.534 24.4105 68.27 28.1725 68.27ZM35.4438 68H36.9738C36.9738 65.552 36.9558 63.086 36.8298 60.044H37.1898C38.1438 62.672 38.9898 65.264 39.8898 68H42.1218C43.0398 65.246 43.8678 62.672 44.8038 60.044H45.1638C45.0378 63.086 45.0198 65.552 45.0198 68H46.5678V58.874H43.8678C42.8598 61.502 42.1218 63.734 41.2038 66.83H40.8438C39.9258 63.734 39.1878 61.502 38.1978 58.874H35.4438V68ZM52.9993 68.27C55.7533 68.27 57.6253 66.326 57.6253 63.428V63.248C57.6253 60.476 55.7533 58.604 52.9993 58.604C50.2633 58.604 48.4273 60.476 48.4273 63.266V63.446C48.4273 66.326 50.2633 68.27 52.9993 68.27ZM49.9753 63.374C49.9753 61.16 51.1093 59.882 53.0173 59.882C54.9253 59.882 56.0773 61.16 56.0773 63.356C56.0773 65.642 54.9253 66.992 53.0173 66.992C51.1093 67.01 49.9753 65.66 49.9753 63.374ZM61.5549 68H63.0849V60.152H66.4509V58.874H58.1889V60.152H61.5549V68ZM67.8052 71.6H69.3712V66.614H69.5512C69.9112 67.46 70.8472 68.234 72.4852 68.234C74.9152 68.234 76.5532 66.38 76.5532 63.626V63.248C76.5532 60.512 74.9152 58.658 72.4852 58.658C70.8472 58.658 69.8392 59.45 69.5512 60.404H69.3712V58.874H67.8052V71.6ZM69.3892 63.428C69.3892 61.214 70.3972 59.9 72.1612 59.9C73.9432 59.9 75.0052 61.214 75.0052 63.428C75.0052 65.66 73.9432 66.974 72.1612 66.974C70.3972 66.974 69.3892 65.66 69.3892 63.428ZM82.7072 68.288C84.9932 68.27 86.7032 66.992 86.9732 65.066H85.4972C85.2632 66.29 84.1652 67.028 82.6712 67.028C80.9792 67.028 79.7732 65.93 79.6292 63.842H86.9012C86.9732 60.548 85.3532 58.604 82.5632 58.604C79.8992 58.604 78.0992 60.494 78.0992 63.284V63.446C78.0992 66.344 79.9532 68.288 82.7072 68.288ZM79.6652 62.618C79.8992 60.872 80.9792 59.846 82.5812 59.846C84.2012 59.846 85.2272 60.872 85.3172 62.618H79.6652ZM90.928 68H92.458V60.152H95.824V58.874H87.562V60.152H90.928V68ZM97.1782 68H101.534C103.658 68 104.846 66.974 104.846 65.102C104.846 63.248 103.658 62.204 101.534 62.204H98.7442V58.874H97.1782V68ZM98.7442 66.74V63.464H101.39C102.65 63.464 103.316 64.04 103.316 65.102C103.316 66.182 102.65 66.74 101.39 66.74H98.7442Z" fill="white"/>
</svg>
